<svg width="24" height="24" viewBox="0 0 24 24" fill="none" xmlns="http://www.w3.org/2000/svg">
<path d="M14.9299 2.5V8.4C14.9299 8.84 14.4099 9.06 14.0899 8.77L12.3399 7.16C12.1499 6.98 11.8499 6.98 11.6599 7.16L9.90995 8.76C9.58995 9.06 9.06995 8.83 9.06995 8.4V2.5C9.06995 2.22 9.28995 2 9.56995 2H14.4299C14.7099 2 14.9299 2.22 14.9299 2.5Z" fill="white"/>
<path d="M16.98 2.06C16.69 2.02 16.43 2.27 16.43 2.56V8.58C16.43 9.34 15.98 10.03 15.28 10.34C14.58 10.64 13.77 10.51 13.21 9.99L12.34 9.19C12.15 9.01 11.86 9.01 11.66 9.19L10.79 9.99C10.43 10.33 9.96 10.5 9.49 10.5C9.23 10.5 8.97 10.45 8.72 10.34C8.02 10.03 7.57 9.34 7.57 8.58V2.56C7.57 2.27 7.31 2.02 7.02 2.06C4.22 2.41 3 4.3 3 7V17C3 20 4.5 22 8 22H16C19.5 22 21 20 21 17V7C21 4.3 19.78 2.41 16.98 2.06ZM17.5 18.75H9C8.59 18.75 8.25 18.41 8.25 18C8.25 17.59 8.59 17.25 9 17.25H17.5C17.91 17.25 18.25 17.59 18.25 18C18.25 18.41 17.91 18.75 17.5 18.75ZM17.5 14.75H13.25C12.84 14.75 12.5 14.41 12.5 14C12.5 13.59 12.84 13.25 13.25 13.25H17.5C17.91 13.25 18.25 13.59 18.25 14C18.25 14.41 17.91 14.75 17.5 14.75Z" fill="white"/>
</svg>
