<svg width="21" height="21" viewBox="0 0 21 21" fill="none" xmlns="http://www.w3.org/2000/svg">
<path d="M9.97391 7.17355L9.9739 7.17356C10.1635 7.36964 10.1646 7.67879 9.97306 7.87037C9.87453 7.96891 9.7491 8.01513 9.62423 8.01513C9.49936 8.01513 9.37393 7.96891 9.2754 7.87037L8.01936 6.61434V15.5769C8.01936 15.8471 7.79599 16.0705 7.52577 16.0705C7.25554 16.0705 7.03218 15.8471 7.03218 15.5769V6.60869L5.7705 7.87037C5.57937 8.0615 5.26396 8.0615 5.07283 7.87037C4.88171 7.67925 4.88171 7.36383 5.07283 7.1727L5.0729 7.17264L7.17693 5.07424M9.97391 7.17355L7.17693 5.07424M9.97391 7.17355L9.97306 7.1727L7.88024 5.07988C7.8339 5.03354 7.77504 4.99443 7.70991 4.96838L7.6973 4.96333H7.69462M9.97391 7.17355L7.69462 4.96333M7.17693 5.07424L7.177 5.07418M7.17693 5.07424C7.17696 5.07422 7.17698 5.0742 7.177 5.07418M7.177 5.07418C7.26904 4.98217 7.39407 4.92949 7.52577 4.92949C7.58759 4.92949 7.64138 4.94337 7.69155 4.96218L7.69462 4.96333M7.177 5.07418L7.69462 4.96333" fill="#495D72" stroke="#495D72" stroke-width="0.141026"/>
<path d="M15.2267 13.1296L13.965 14.3913V5.42308C13.965 5.15285 13.7416 4.92949 13.4714 4.92949C13.2012 4.92949 12.9778 5.15285 12.9778 5.42308V14.3857L11.7218 13.1296C11.5307 12.9385 11.2153 12.9385 11.0241 13.1296C10.833 13.3208 10.833 13.6362 11.0241 13.8273L13.1169 15.9201C13.1633 15.9665 13.2221 16.0056 13.2873 16.0316L13.2999 16.0367H13.3026L13.3056 16.0378C13.357 16.0571 13.4162 16.0705 13.4771 16.0705C13.6088 16.0705 13.7339 16.0178 13.8259 15.9258L15.9244 13.8273L15.9244 13.8273L15.9252 13.8264C16.1147 13.6304 16.1159 13.3212 15.9244 13.1296C15.7332 12.9385 15.4178 12.9385 15.2267 13.1296Z" fill="#495D72" stroke="#495D72" stroke-width="0.141026"/>
</svg>
