<svg width="24" height="24" viewBox="0 0 24 24" fill="none" xmlns="http://www.w3.org/2000/svg">
<path d="M12 20.5C11.1761 20.5 10.5 19.8239 10.5 19C10.5 18.1761 11.1761 17.5 12 17.5C12.8239 17.5 13.5 18.1761 13.5 19C13.5 19.8239 12.8239 20.5 12 20.5Z" fill="#0C1E33" stroke="#0C1E33"/>
<path d="M12 6.5C11.1761 6.5 10.5 5.82386 10.5 5C10.5 4.17614 11.1761 3.5 12 3.5C12.8239 3.5 13.5 4.17614 13.5 5C13.5 5.82386 12.8239 6.5 12 6.5Z" fill="#0C1E33" stroke="#0C1E33"/>
<path d="M12 13.5C11.1761 13.5 10.5 12.8239 10.5 12C10.5 11.1761 11.1761 10.5 12 10.5C12.8239 10.5 13.5 11.1761 13.5 12C13.5 12.8239 12.8239 13.5 12 13.5Z" fill="#0C1E33" stroke="#0C1E33"/>
</svg>
