<svg width="24" height="24" viewBox="0 0 24 24" fill="none" xmlns="http://www.w3.org/2000/svg">
<g clip-path="url(#clip0_1_302)">
<path d="M19.34 14.49L18.34 12.83C18.13 12.46 17.94 11.76 17.94 11.35V8.82C17.94 6.47 16.56 4.44 14.57 3.49C14.05 2.57 13.09 2 11.99 2C10.9 2 9.91997 2.59 9.39997 3.52C7.44997 4.49 6.09997 6.5 6.09997 8.82V11.35C6.09997 11.76 5.90997 12.46 5.69997 12.82L4.68997 14.49C4.28997 15.16 4.19997 15.9 4.44997 16.58C4.68997 17.25 5.25997 17.77 5.99997 18.02C7.93997 18.68 9.97997 19 12.02 19C14.06 19 16.1 18.68 18.04 18.03C18.74 17.8 19.28 17.27 19.54 16.58C19.8 15.89 19.73 15.13 19.34 14.49Z" fill="#0C1E33"/>
<path d="M14.83 20.01C14.41 21.17 13.3 22 12 22C11.21 22 10.43 21.68 9.87998 21.11C9.55998 20.81 9.31998 20.41 9.17998 20C9.30998 20.02 9.43998 20.03 9.57998 20.05C9.80998 20.08 10.05 20.11 10.29 20.13C10.86 20.18 11.44 20.21 12.02 20.21C12.59 20.21 13.16 20.18 13.72 20.13C13.93 20.11 14.14 20.1 14.34 20.07C14.5 20.05 14.66 20.03 14.83 20.01Z" fill="#0C1E33"/>
</g>
<defs>
<clipPath id="clip0_1_302">
<rect width="24" height="24" fill="white"/>
</clipPath>
</defs>
</svg>
